<?xml version="1.0" encoding="UTF-8"?>
<svg width="400" height="400" viewBox="0 0 400 400" fill="none" xmlns="http://www.w3.org/2000/svg">
  <rect width="400" height="400" fill="#E5E7EB"/>
  <path d="M200 150C177.909 150 160 167.909 160 190C160 212.091 177.909 230 200 230C222.091 230 240 212.091 240 190C240 167.909 222.091 150 200 150ZM200 220C183.458 220 170 206.542 170 190C170 173.458 183.458 160 200 160C216.542 160 230 173.458 230 190C230 206.542 216.542 220 200 220Z" fill="#9CA3AF"/>
  <path d="M200 170C188.954 170 180 178.954 180 190C180 201.046 188.954 210 200 210C211.046 210 220 201.046 220 190C220 178.954 211.046 170 200 170Z" fill="#9CA3AF"/>
  <path d="M200 240C177.909 240 160 257.909 160 280C160 302.091 177.909 320 200 320C222.091 320 240 302.091 240 280C240 257.909 222.091 240 200 240ZM200 310C183.458 310 170 296.542 170 280C170 263.458 183.458 250 200 250C216.542 250 230 263.458 230 280C230 296.542 216.542 310 200 310Z" fill="#9CA3AF"/>
  <path d="M200 260C188.954 260 180 268.954 180 280C180 291.046 188.954 300 200 300C211.046 300 220 291.046 220 280C220 268.954 211.046 260 200 260Z" fill="#9CA3AF"/>
</svg> 